HIERARCHY
ROOT root
{
	OFFSET	0	13.1	24.9
	CHANNELS 6  Xposition Yposition Zposition Xrotation Yrotation Zrotation
	JOINT spine_1
	{
		OFFSET	0	9.99999	0
		CHANNELS 3  Xrotation Yrotation Zrotation
		JOINT spine_2
		{
			OFFSET	0	112	-10
			CHANNELS 3  Xrotation Yrotation Zrotation
			JOINT spine_3
			{
				OFFSET	0	206.5	19.3
				CHANNELS 3  Xrotation Yrotation Zrotation
				JOINT spine_4
				{
					OFFSET	0	110.4	14.6
					CHANNELS 3  Xrotation Yrotation Zrotation
					JOINT neck_1
					{
						OFFSET	0	71.8	-50.3
						CHANNELS 3  Xrotation Yrotation Zrotation
						JOINT neck_2
						{
							OFFSET	0	86.2	-25.8
							CHANNELS 3  Xrotation Yrotation Zrotation
							JOINT head_ee
							{
								OFFSET	0	179.8	-8.7
								CHANNELS 3  Xrotation Yrotation Zrotation
								End Site
								{
									OFFSET	1	0	0
								}
							}
						}
					}
					JOINT left_clavicle
					{
						OFFSET	-43.2	22.4	-70.8
						CHANNELS 3  Xrotation Yrotation Zrotation
						JOINT left_shoulder
						{
							OFFSET	-93.9	-5.79999	48.7
							CHANNELS 3  Xrotation Yrotation Zrotation
							JOINT left_elbow
							{
								OFFSET	-291.4	-30.8	15.2
								CHANNELS 3  Xrotation Yrotation Zrotation
								JOINT left_lowarm_twist
								{
									OFFSET	-110.7	-3.89999	13.6
									CHANNELS 3  Xrotation Yrotation Zrotation
									JOINT left_hand
									{
										OFFSET	-110.7	-3.89999	13.6
										CHANNELS 3  Xrotation Yrotation Zrotation
										JOINT left_ee
										{
											OFFSET	-80.8	-5.10001	12.1
											CHANNELS 3  Xrotation Yrotation Zrotation
											End Site
											{
												OFFSET	1	0	0
											}
										}
									}
								}
							}
						}
					}
					JOINT right_clavicle
					{
						OFFSET	43.2	22.4	-70.8
						CHANNELS 3  Xrotation Yrotation Zrotation
						JOINT right_shoulder
						{
							OFFSET	93.9	-5.79999	48.7
							CHANNELS 3  Xrotation Yrotation Zrotation
							JOINT right_elbow
							{
								OFFSET	291.4	-30.8	15.2
								CHANNELS 3  Xrotation Yrotation Zrotation
								JOINT right_lowarm_twist
								{
									OFFSET	110.7	-3.89999	13.6
									CHANNELS 3  Xrotation Yrotation Zrotation
									JOINT right_hand
									{
										OFFSET	110.7	-3.89999	13.6
										CHANNELS 3  Xrotation Yrotation Zrotation
										JOINT right_ee
										{
											OFFSET	80.8	-5.10001	12.1
											CHANNELS 3  Xrotation Yrotation Zrotation
											End Site
											{
												OFFSET	1	0	0
											}
										}
									}
								}
							}
						}
					}
				}
			}
		}
	}
	JOINT left_hip
	{
		OFFSET	-82.8	-127.5	0.300001
		CHANNELS 3  Xrotation Yrotation Zrotation
		JOINT left_knee
		{
			OFFSET	-28.2	-396.7	2.2
			CHANNELS 3  Xrotation Yrotation Zrotation
			JOINT left_ankle
			{
				OFFSET	-11.7	-411.3	35.4
				CHANNELS 3  Xrotation Yrotation Zrotation
				JOINT left_toes
				{
					OFFSET	0	-60	-88.6
					CHANNELS 3  Xrotation Yrotation Zrotation
					JOINT left_foot_ee
					{
						OFFSET	-22.5	-16.5	-42.2
						CHANNELS 3  Xrotation Yrotation Zrotation
						End Site
						{
							OFFSET	1	0	0
						}
					}
				}
			}
		}
	}
	JOINT right_hip
	{
		OFFSET	82.8	-127.5	0.300001
		CHANNELS 3  Xrotation Yrotation Zrotation
		JOINT right_knee
		{
			OFFSET	28.2	-396.7	2.2
			CHANNELS 3  Xrotation Yrotation Zrotation
			JOINT right_ankle
			{
				OFFSET	11.7	-411.3	35.4
				CHANNELS 3  Xrotation Yrotation Zrotation
				JOINT right_toes
				{
					OFFSET	0	-60	-88.6
					CHANNELS 3  Xrotation Yrotation Zrotation
					JOINT right_foot_ee
					{
						OFFSET	22.5	-16.5	-42.2
						CHANNELS 3  Xrotation Yrotation Zrotation
						End Site
						{
							OFFSET	1	0	0
						}
					}
				}
			}
		}
	}
}
MOTION
Frames: 9
Frame Time: 0.02
3437.77889838 739.598 -1550.73759978 70.4050083143 75.2321462737 -69.803737935 -7.9643 0.0949026 -0.0444134 -7.96431 0.0975364 -0.0382845 -7.96439 0.104753 -0.00243878 -7.96437 0.103053 -0.0189519 -6.56921 5.15561 6.44558 -6.45959 4.85303 7.47001 -0.0 0.0 -0.0 8.03189 17.7083 14.5935 -8.1745 -12.8595 61.9556 1.02498 -26.9183 0.245309 -77.5405 -7.50907 5.3061 1.53864 20.0199 17.5042 -0.0 0.0 -0.0 11.2254 18.6484 -22.256 -1.69023 18.6565 -49.872 1.15093 29.6881 -0.305046 85.2203 4.45292 8.87624 0.736589 -0.415142 -5.09545 0.0 0.0 0.0 12.9528 32.968 -17.9217 -26.1579 0.171949 3.97577 -3.35243 -26.9764 0.60722 -18.9932 0.0 0.0 -0.0 0.0 -0.0 -21.2385 33.9096 -4.98012 -2.84344 -0.106586 -0.423314 30.6326 -26.8698 4.22929 4.74641 -0.0 -0.0 0.0 0.0 0.0 
3440.34236016 739.598 -1555.17334883 64.0008903794 74.5035113575 -63.1702273948 -7.9643 0.0949026 -0.0444134 -7.96431 0.0975364 -0.0382845 -7.96439 0.104753 -0.00243878 -7.96437 0.103053 -0.0189519 -6.56921 5.15561 6.44558 -6.45959 4.85303 7.47001 -0.0 0.0 -0.0 8.03189 17.7083 14.5935 -8.1745 -12.8595 61.9556 1.02498 -26.9183 0.245309 -77.5405 -7.50907 5.3061 1.53864 20.0199 17.5042 -0.0 0.0 -0.0 11.2254 18.6484 -22.256 -1.69023 18.6565 -49.872 1.15093 29.6881 -0.305046 85.2203 4.45292 8.87624 0.736589 -0.415142 -5.09545 0.0 0.0 0.0 12.9528 32.968 -17.9217 -26.1579 0.171949 3.97577 -3.35243 -26.9764 0.60722 -18.9932 0.0 0.0 -0.0 0.0 -0.0 -21.2385 33.9096 -4.98012 -2.84344 -0.106586 -0.423314 30.6326 -26.8698 4.22929 4.74641 -0.0 -0.0 0.0 0.0 0.0 
3441.55801136 739.598 -1557.16565886 61.2968488636 74.1104622985 -60.3615470945 -7.9643 0.0949026 -0.0444134 -7.96431 0.0975364 -0.0382845 -7.96439 0.104753 -0.00243878 -7.96437 0.103053 -0.0189519 -6.56921 5.15561 6.44558 -6.45959 4.85303 7.47001 -0.0 0.0 -0.0 8.03189 17.7083 14.5935 -8.1745 -12.8595 61.9556 1.02498 -26.9183 0.245309 -77.5405 -7.50907 5.3061 1.53864 20.0199 17.5042 -0.0 0.0 -0.0 11.2254 18.6484 -22.256 -1.69023 18.6565 -49.872 1.15093 29.6881 -0.305046 85.2203 4.45292 8.87624 0.736589 -0.415142 -5.09545 0.0 0.0 0.0 12.9528 32.968 -17.9217 -26.1579 0.171949 3.97577 -3.35243 -26.9764 0.60722 -18.9932 0.0 0.0 -0.0 0.0 -0.0 -21.2385 33.9096 -4.98012 -2.84344 -0.106586 -0.423314 30.6326 -26.8698 4.22929 4.74641 -0.0 -0.0 0.0 0.0 0.0 
3441.60173076 739.598 -1557.23607997 61.2033461604 74.0958529791 -60.264326322 -7.9643 0.0949026 -0.0444134 -7.96431 0.0975364 -0.0382845 -7.96439 0.104753 -0.00243878 -7.96437 0.103053 -0.0189519 -6.56921 5.15561 6.44558 -6.45959 4.85303 7.47001 -0.0 0.0 -0.0 8.03189 17.7083 14.5935 -8.1745 -12.8595 61.9556 1.02498 -26.9183 0.245309 -77.5405 -7.50907 5.3061 1.53864 20.0199 17.5042 -0.0 0.0 -0.0 11.2254 18.6484 -22.256 -1.69023 18.6565 -49.872 1.15093 29.6881 -0.305046 85.2203 4.45292 8.87624 0.736589 -0.415142 -5.09545 0.0 0.0 0.0 12.9528 32.968 -17.9217 -26.1579 0.171949 3.97577 -3.35243 -26.9764 0.60722 -18.9932 0.0 0.0 -0.0 0.0 -0.0 -21.2385 33.9096 -4.98012 -2.84344 -0.106586 -0.423314 30.6326 -26.8698 4.22929 4.74641 -0.0 -0.0 0.0 0.0 0.0 
3431.4964645 745.349 -1549.57845725 73.5930687714 75.9114771858 -73.2763632721 -8.00849 0.0313138 -0.109893 -8.00848 0.0382431 -0.107677 -8.00855 0.0729816 -0.087924 -8.00855 0.0581797 -0.0983466 -5.62066 5.34422 5.78714 -5.53212 5.55576 6.825 -0.0 0.0 -0.0 8.08488 18.2965 14.6179 -8.48613 -12.1286 62.599 0.959867 -25.4302 0.216586 -78.2597 -7.60066 5.29979 1.57956 20.3192 17.8526 -0.0 0.0 -0.0 11.4818 18.9018 -22.8229 -0.569636 19.0859 -48.9957 1.29492 32.6772 -0.379624 85.1676 4.4466 8.87383 0.780221 -0.436175 -5.3964 0.0 0.0 0.0 14.0762 36.3374 -17.2787 -20.8964 0.283906 3.1764 -4.94662 -28.5073 0.917163 -19.3395 0.0 0.0 -0.0 0.0 -0.0 -22.3977 33.7968 -4.14482 -1.57601 -0.0616765 -0.233991 32.1711 -27.2413 4.41661 4.74086 -0.0 -0.0 0.0 0.0 0.0 
3430.81320745 745.349 -1548.25902615 75.630901593 76.0515208834 -75.376735392 -8.00849 0.0313138 -0.109893 -8.00848 0.0382431 -0.107677 -8.00855 0.0729816 -0.087924 -8.00855 0.0581797 -0.0983466 -5.62066 5.34422 5.78714 -5.53212 5.55576 6.825 -0.0 0.0 -0.0 8.08488 18.2965 14.6179 -8.48613 -12.1286 62.599 0.959867 -25.4302 0.216586 -78.2597 -7.60066 5.29979 1.57956 20.3192 17.8526 -0.0 0.0 -0.0 11.4818 18.9018 -22.8229 -0.569636 19.0859 -48.9957 1.29492 32.6772 -0.379624 85.1676 4.4466 8.87383 0.780221 -0.436175 -5.3964 0.0 0.0 0.0 14.0762 36.3374 -17.2787 -20.8964 0.283906 3.1764 -4.94662 -28.5073 0.917163 -19.3395 0.0 0.0 -0.0 0.0 -0.0 -22.3977 33.7968 -4.14482 -1.57601 -0.0616765 -0.233991 32.1711 -27.2413 4.41661 4.74086 -0.0 -0.0 0.0 0.0 0.0 
3425.46068932 739.533 -1545.77252432 83.7535626378 77.1523905424 -83.0852413948 -8.0166 0.0215557 -0.156566 -8.01659 0.0314747 -0.154877 -8.01665 0.0828988 -0.134556 -8.01667 0.0606078 -0.14596 -4.34501 6.22313 6.00016 -4.24685 6.82975 7.16205 -0.0 0.0 -0.0 8.13858 18.7074 14.6596 -8.52674 -11.6765 62.8777 0.883792 -23.6438 0.18499 -77.9982 -7.56736 5.30222 1.73318 20.4073 18.8471 -0.0 0.0 -0.0 11.5366 19.2178 -22.9274 -0.399519 19.3164 -47.3635 1.43216 35.3518 -0.456419 85.0698 4.43488 8.86935 0.875044 -1.05181 -6.28263 0.0 0.0 0.0 14.0489 37.9962 -15.1845 -13.9297 0.318554 2.10871 -7.32842 -28.2152 1.36027 -19.8343 0.0 0.0 -0.0 0.0 -0.0 -22.4549 33.8248 -4.80055 0.421914 0.0176035 0.0623525 32.7653 -27.0761 4.47874 4.3973 -0.0 -0.0 0.0 0.0 0.0 
3419.4868878 736.634 -1543.02509762 84.4118412425 77.8110047687 -82.8825166273 -8.04575 0.000248812 -0.260465 -8.04571 0.0168223 -0.259921 -8.04571 0.105449 -0.238165 -8.04578 0.0665117 -0.251829 -2.54604 7.5366 6.3713 -2.42553 8.65025 7.69117 -0.0 0.0 -0.0 7.82479 19.1746 14.1132 -8.5963 -11.0389 63.2008 0.778549 -21.0901 0.144931 -77.5879 -7.51511 5.30572 1.94632 20.5371 20.2386 -0.0 0.0 -0.0 11.6087 19.5995 -23.0664 -0.0493057 19.6859 -45.7222 1.6323 38.9557 -0.577351 84.916 4.41647 8.86225 0.984702 -1.933 -7.37334 0.0 0.0 0.0 15.2467 39.4072 -14.5543 -5.40758 0.184572 0.809072 -11.1281 -27.8144 2.06767 -20.6354 0.0 0.0 -0.0 0.0 -0.0 -23.0555 33.8371 -4.58397 3.27503 0.148655 0.480462 33.5092 -26.8467 4.55472 3.83458 -0.0 -0.0 0.0 0.0 0.0 
3409.06708451 732.096 -1541.57551282 84.1402820699 77.7752941807 -82.9098863712 -8.04998 0.00675829 -0.244479 -8.04995 0.0223014 -0.243554 -8.04998 0.104962 -0.220905 -8.05004 0.0687572 -0.234709 -2.079 7.66142 4.70888 -1.98971 10.1198 5.9521 -0.0 0.0 -0.0 7.71674 19.9504 13.8648 -9.48449 -10.0536 63.6437 0.728287 -19.838 0.127357 -77.377 -7.48823 5.30737 2.13122 20.3256 21.3654 -0.0 0.0 -0.0 12.2941 22.7199 -24.3901 1.72499 19.8515 -44.8102 1.61869 38.7215 -0.568817 85.1343 4.44262 8.87231 0.891964 -1.63533 -6.63228 0.0 0.0 0.0 17.3205 39.2491 -14.6414 -2.62248 0.0990591 0.390239 -12.1333 -27.3257 2.24329 -20.933 0.0 0.0 -0.0 0.0 -0.0 -23.9266 33.9474 -4.29467 3.28279 0.149039 0.48159 34.4266 -26.6598 4.64962 3.88478 -0.0 -0.0 0.0 0.0 0.0 
